<mxfile host="app.diagrams.net" modified="2023-07-29T08:26:48.707Z" agent="Mozilla/5.0 (Windows NT 10.0; Win64; x64) AppleWebKit/537.36 (KHTML, like Gecko) Chrome/115.0.0.0 Safari/537.36 Edg/115.0.1901.183" version="21.6.5" etag="xdAzkfcDKKF4MumxKYK6" type="github">
  <diagram name="第 1 页" id="rB41k-2Cmgf2PBm2M9eq">
    <mxGraphModel>
      <root>
        <mxCell id="0" />
        <mxCell id="1" parent="0" />
      </root>
    </mxGraphModel>
  </diagram>
</mxfile>
